<svg aria-hidden="true" focusable="false" role="img"  version="1.1" xmlns="http://www.w3.org/2000/svg" width="32" height="32" viewBox="0 0 32 32"><path fill="currentColor" d="M3.753 14.694l11.833-12.372 11.828 12.372c0.342 0.358 0.901 0.358 1.244 0 0.345-0.361 0.345-0.942 0-1.303l-12.451-13.020c-0.345-0.361-0.901-0.361-1.244 0l-12.455 13.020c-0.343 0.362-0.343 0.943 0 1.303 0.346 0.359 0.902 0.359 1.245 0.001M3.753 26.498l11.833-12.373 11.828 12.373c0.342 0.358 0.901 0.358 1.244 0 0.345-0.362 0.345-0.942 0-1.304l-12.451-13.020c-0.345-0.361-0.901-0.361-1.244 0l-12.455 13.020c-0.343 0.362-0.343 0.943 0 1.304 0.346 0.358 0.902 0.358 1.245 0.001"></path></svg>
